<svg id="Lager_1" data-name="Lager 1" xmlns="http://www.w3.org/2000/svg" viewBox="0 0 400 400"><defs><style>.cls-1{fill:#c7c9c7;}.cls-2{fill:#e5416f;}.cls-3{fill:#94c498;}.cls-4{fill:#ed4f80;}.cls-5{fill:#a7cea9;}</style></defs><polygon class="cls-1" points="270.6 399.33 146.6 277.33 320.6 86.33 402.6 174.33 403.6 399.33 270.6 399.33"/><path class="cls-2" d="M335.22,116.39v2.88c0,15.15-8.71,28.1-21.06,33.44a38,38,0,0,1,3.33,15.68v2.88c0,16.14-9.89,29.81-23.53,34.4a38,38,0,0,1,4.88,18.72v2.88c0,14.71-8.22,27.35-20,33a39,39,0,0,1,.87,8.16v2.88c0,19.11-13.87,34.74-31.41,36-9.69,14.36-28.38,24.09-49.87,24.09-21.78,0-40.7-10-50.26-24.7-15.43-3.28-27.06-17.86-27.06-35.36v-2.88a39,39,0,0,1,.88-8.16c-11.78-5.61-20-18.25-20-33v-2.88a38,38,0,0,1,4.89-18.72c-13.65-4.59-23.54-18.26-23.54-34.4v-2.88a38,38,0,0,1,3.34-15.68c-12.35-5.34-21.07-18.29-21.07-33.44v-2.88a40.73,40.73,0,0,1,.31-5c2.7-21.83,22.51-36.37,42.67-32.16l32.66,6.8.28.06.39,0,2.7.37,9.76,1.32,5.42.74,20,2.71c17.28,2.7,22.84,1.69,40.14-.89l22.48-3.35,2.15-.33,2.11-.31,3.39-.56,6.42-1.07,4-.66,32.8-5.44c19.94-3.31,39,11.27,41.69,32.72A40.73,40.73,0,0,1,335.22,116.39Z"/><line class="cls-3" x1="260.8" y1="84.82" x2="253.92" y2="85.89"/><path class="cls-4" d="M200.6,92.93V331.4c-.78,0-1.57,0-2.36,0-21.79,0-40.71-10-50.27-24.7-15.42-3.28-27.06-17.86-27.06-35.36V268.5a39,39,0,0,1,.88-8.16c-11.77-5.61-20-18.25-20-33V224.5a37.85,37.85,0,0,1,4.89-18.72c-13.65-4.59-23.55-18.26-23.55-34.4V168.5a38,38,0,0,1,3.34-15.68c-12.34-5.34-21.07-18.29-21.07-33.44V116.5a42.85,42.85,0,0,1,.31-5c2.71-21.83,22.51-36.37,42.68-32.16l32.66,6.8.28.06.39,0,2.7.37L154.17,88l5.42.74,20,2.71C188.7,92.87,194.56,93.26,200.6,92.93Z"/><path class="cls-5" d="M178.86,102.76,133.5,67.57A2.73,2.73,0,0,1,136,62.81l41.71,13a2.73,2.73,0,0,0,3.45-3.29l-2.73-10.4a2.73,2.73,0,0,1,4.66-2.52l16.1,17.74a2.73,2.73,0,0,0,3.85.19l19.17-17.3a2.64,2.64,0,0,1,4.38,2.33L225,73.42a2.72,2.72,0,0,0,3.59,3L265.72,63.5a2.73,2.73,0,0,1,2.6,4.7l-43,34.53a2.74,2.74,0,0,1-1.71.6H180.53A2.74,2.74,0,0,1,178.86,102.76Z"/><path class="cls-3" d="M268.06,68.2l-43,34.53a2.7,2.7,0,0,1-1.71.6H200.6V78.19a2.75,2.75,0,0,0,2.17-.68l19.17-17.3a2.64,2.64,0,0,1,4.38,2.33l-1.54,10.87a2.73,2.73,0,0,0,3.6,3L265.46,63.5A2.72,2.72,0,0,1,268.06,68.2Z"/></svg>